<?xml version="1.0" encoding="UTF-8"?>
<svg width="16px" height="16px" viewBox="0 0 16 16" version="1.1" xmlns="http://www.w3.org/2000/svg" xmlns:xlink="http://www.w3.org/1999/xlink">
    <title>Icon1 /  new/ container2</title>
    <g id="Icon1-/--new/-container2" stroke="none" stroke-width="1" fill="none" fill-rule="evenodd">
        <g id="编组" transform="translate(1.000000, 0.000000)" fill="#10AEFF" fill-rule="nonzero">
            <g id="编组-2" transform="translate(0.478204, 0.695445)">
                <path d="M7.04617762,0.600089816 L12.0117526,3.51375573 C12.317721,3.69328978 12.5056697,4.02148834 12.5056697,4.37624057 L12.5056697,10.0927909 C12.5056697,10.4497237 12.3154227,10.7795959 12.0064762,10.9583501 L7.03924388,13.8323561 C6.73162113,14.0103444 6.35264365,14.0116855 6.04376897,13.8358786 L1.02712748,10.9804813 C0.714725509,10.8026668 0.521795853,10.4708616 0.521795853,10.1113995 L0.521795853,4.37902186 C0.521795853,4.02277588 0.711317484,3.69343013 1.01932585,3.51442722 L6.0376247,0.597980004 C6.34957243,0.416687678 6.73499112,0.417493943 7.04617762,0.600089816 Z M11.5056697,4.37624057 L6.54009471,1.46257465 L1.52179585,4.37902186 L1.52179585,10.1113995 L6.53843735,12.9667968 L11.5056697,10.0927909 L11.5056697,4.37624057 Z" id="路径-13"></path>
                <path d="M6.500132,6.852665 C6.74559189,6.852665 6.94974037,7.02954016 6.99207633,7.26278937 L7.000132,7.352665 L7.000132,13.5075272 C7.000132,13.7836696 6.77627437,14.0075272 6.500132,14.0075272 C6.25467211,14.0075272 6.05052363,13.8306521 6.00818767,13.5974029 L6.000132,13.5075272 L6.000132,7.352665 C6.000132,7.07652263 6.22398963,6.852665 6.500132,6.852665 Z" id="路径"></path>
                <path d="M12.2020837,3.73451671 C12.4875163,4.03269807 12.4875163,4.03269807 12.3871409,4.4330837 L12.3198197,4.52356618 C12.3017403,4.54418892 12.2840472,4.559237 12.2548164,4.5806007 L12.2008263,4.61886925 L6.7708575,7.75382138 C6.58158817,7.86309463 6.34832236,7.86276331 6.15936419,7.75295287 L0.765192498,4.61820394 L1.26764555,3.75359944 L6.466,6.774 L11.7008313,3.75284096 L11.6140615,3.81701735 C11.6041695,3.82563976 11.5956114,3.83417353 11.5869609,3.84404097 L11.522538,3.93062792 L11.4778488,4.11988684 C11.4424647,4.29952672 11.4715018,4.35693632 11.625702,4.5214083 L11.699628,4.59911962 L12.2020837,3.73451671 Z" id="路径"></path>
            </g>
        </g>
    </g>
</svg>