<?xml version="1.0" encoding="UTF-8"?>
<svg width="16px" height="16px" viewBox="0 0 16 16" version="1.1" xmlns="http://www.w3.org/2000/svg" xmlns:xlink="http://www.w3.org/1999/xlink">
    <title>Icon1 / new/ container</title>
    <g id="Icon1-/-new/-container" stroke="none" stroke-width="1" fill="none" fill-rule="evenodd">
        <g id="编组" transform="translate(0.500000, 0.760000)" fill="#0B75E0" fill-rule="nonzero">
            <path d="M12.5142857,6.900943 C12.492927,10.7508001 9.63899165,13.54 6.11988395,13.54 C3.33307612,13.54 0.85,11.9107711 0.087563791,9.186343 C-0.213306897,8.11123592 0.456814416,6.99817023 1.4684225,6.90693704 L1.6020006,6.900943 L12.5142857,6.900943 Z M1.64682843,7.89993773 L1.55824426,7.9028949 C1.20117256,7.93509787 0.910412519,8.41603634 1.05056485,8.91684539 C1.66782313,11.1225064 3.68533106,12.54 6.11988395,12.54 C8.77365448,12.54 10.9121983,10.6897789 11.4065134,8.04198039 L11.43,7.9 L1.64682843,7.89993773 Z" id="路径"></path>
            <path d="M14.7537216,4.327143 C14.8687216,4.327143 14.9663605,4.40978189 14.9957124,4.5183467 L15.0047216,4.586143 L15.0047216,6.191143 C15.0047216,7.083643 14.3223605,7.81558744 13.4512971,7.89415998 L13.2957216,7.901143 L11.4217216,7.901143 C11.4323288,6.08442871 12.784705,4.58758178 14.5382771,4.34848566 L14.7347216,4.327143 L14.7537216,4.327143 Z M14.004,5.524 L13.8909086,5.57577251 C13.359214,5.83392167 12.9309051,6.26677886 12.6768292,6.79686026 L12.629,6.902 L13.2508816,6.90214882 L13.3614588,6.89820361 C13.6908321,6.86849315 13.952967,6.61291537 13.9979058,6.28990925 L14.0047216,6.191143 L14.004,5.524 Z" id="路径"></path>
            <path d="M10.9615385,0.9 C11.2589226,0.9 11.5,1.14107744 11.5,1.43846154 L11.5,7.36153846 C11.5,7.65892256 11.2589226,7.9 10.9615385,7.9 L5.03846154,7.9 C4.74107744,7.9 4.5,7.65892256 4.5,7.36153846 L4.5,1.43846154 C4.5,1.14107744 4.74107744,0.9 5.03846154,0.9 L10.9615385,0.9 Z M10.5,1.899 L5.5,1.899 L5.5,6.899 L10.5,6.899 L10.5,1.899 Z" id="路径"></path>
            <path d="M4.83333333,3.895714 C5.20152317,3.895714 5.5,4.19419083 5.5,4.56238067 L5.5,7.22904733 C5.5,7.59723717 5.20152317,7.895714 4.83333333,7.895714 L2.16666667,7.895714 C1.79847683,7.895714 1.5,7.59723717 1.5,7.22904733 L1.5,4.56238067 C1.5,4.19419083 1.79847683,3.895714 2.16666667,3.895714 L4.83333333,3.895714 Z M4.5,4.895 L2.5,4.895 L2.5,6.895 L4.5,6.895 L4.5,4.895 Z" id="路径"></path>
        </g>
    </g>
</svg>