<?xml version="1.0" encoding="UTF-8"?>
<svg width="16px" height="16px" viewBox="0 0 16 16" version="1.1" xmlns="http://www.w3.org/2000/svg" xmlns:xlink="http://www.w3.org/1999/xlink">
    <!-- Generator: Sketch 59.1 (86144) - https://sketch.com -->
    <title>Filetype / JS</title>
    <desc>Created with Sketch.</desc>
    <g id="Filetype-/-JS" stroke="none" stroke-width="1" fill="none" fill-rule="evenodd">
        <g id="Group" fill="#FCAD00">
            <path d="M2.8039694,10.562753 L2.15585532,11.0470743 C1.97885302,11.1792959 1.94259496,11.4299778 2.07484757,11.606957 C2.09539226,11.6344497 2.11938957,11.6591842 2.14624823,11.6805512 C2.8158704,12.2132576 3.4297105,12.4864072 3.98776853,12.5 C4.71022335,12.4919028 5.344325,12.2388689 5.89009251,11.7408907 C6.4397864,11.2550583 6.72248187,10.5668061 6.73818741,9.67611336 L6.73818741,3.97287449 C6.73818741,3.75196059 6.55910131,3.57287449 6.33818741,3.57287449 L5.83659732,3.57287449 C5.61568342,3.57287449 5.43659732,3.75196059 5.43659732,3.97287449 L5.43659732,9.54251012 L5.43659732,9.54251012 C5.43659732,9.84210676 5.39144457,10.0910921 5.30113772,10.2894737 C5.21475725,10.4959524 5.0950043,10.6619427 4.94187529,10.7874494 C4.6277645,11.0425114 4.29795311,11.1659919 3.95243124,11.1578947 C3.69328984,11.1578947 3.46752609,11.0951423 3.27513323,10.9696356 C3.14687132,10.8994598 2.98981671,10.7638323 2.8039694,10.562753 Z M8.344114,10.5298806 L8.01208589,10.9218276 C7.86924588,11.09038 7.89013787,11.3428095 8.05871744,11.4856175 C8.07810302,11.5020395 8.09900893,11.5165774 8.12115188,11.5290343 C9.27179302,12.1763448 10.2262596,12.5 10.9845515,12.5 C12.9516703,12.4757084 13.9568098,11.6174174 14,9.92510121 C14,9.29756771 13.8095732,8.74696593 13.4287139,8.27327935 C13.0439281,7.79149557 12.4490897,7.49392769 11.6441808,7.3805668 C11.2358368,7.32793496 10.9138781,7.28137672 10.678295,7.24089069 C10.2542454,7.15991862 9.94602881,7.01417109 9.75363595,6.80364372 C9.56124309,6.59716496 9.4650481,6.36639804 9.4650481,6.11133603 C9.47290087,5.68623269 9.61621177,5.36639783 9.8949851,5.15182186 C10.1619793,4.9453431 10.495717,4.84210526 10.8962082,4.84210526 C11.3512789,4.85163289 11.9566906,5.02932088 12.7124433,5.37516922 C12.8921935,5.45741585 13.10507,5.39603571 13.2134289,5.23070888 L13.5004674,4.79276474 C13.6215124,4.60799595 13.5699072,4.36007385 13.3851644,4.23898926 C13.3704001,4.2293124 13.3550113,4.22062365 13.339099,4.21298001 C12.3792121,3.75188767 11.5865102,3.51422767 10.9609933,3.5 C10.0736303,3.50809721 9.38848639,3.74696121 8.90554105,4.21659919 C8.40689016,4.69028577 8.15756846,5.31376132 8.15756846,6.08704453 C8.15756846,6.73077245 8.35584792,7.27732569 8.7524128,7.72672065 C9.13719852,8.1639698 9.69866314,8.4453435 10.4368235,8.5708502 C10.8490939,8.63157925 11.2279844,8.68623457 11.5735063,8.73481781 C12.3273722,8.86842172 12.7003731,9.26517889 12.6925204,9.92510121 C12.6768148,10.7307733 12.1114239,11.1417003 10.9963306,11.1578947 C10.4286476,11.1530168 9.71028053,10.9128693 8.84122947,10.4374523 C8.67458554,10.3463876 8.46686207,10.384981 8.344114,10.5298806 Z" id="JS"></path>
        </g>
    </g>
</svg>