<?xml version="1.0" encoding="UTF-8"?>
<svg width="16px" height="16px" viewBox="0 0 16 16" version="1.1" xmlns="http://www.w3.org/2000/svg" xmlns:xlink="http://www.w3.org/1999/xlink">
    <!-- Generator: Sketch 59.1 (86144) - https://sketch.com -->
    <title>Filetype / WXML</title>
    <desc>Created with Sketch.</desc>
    <g id="Filetype-/-WXML" stroke="none" stroke-width="1" fill="none" fill-rule="evenodd">
        <g id="Group" fill="#17A8E2">
            <path d="M1.64999998,8.49077181 C2.0495026,8.50035959 2.34912507,8.67773078 2.54887638,9.0228907 C2.74363391,9.35366896 2.84101121,9.77552476 2.84101121,10.2884708 L2.84101121,11.3676894 C2.85099878,11.8758415 3.00580372,12.2713313 3.30543069,12.5541707 C3.59007631,12.8418039 3.937139,12.9904122 4.34662919,13 L5.7047471,12.9911549 C5.86966654,12.9900808 6.00279332,12.8560842 6.00279332,12.6911613 L6.00279332,12.1988018 C6.00279332,12.0331164 5.86847874,11.8988018 5.70279332,11.8988018 L4.71198843,11.8988018 L4.71198843,11.8988018 C4.03439006,11.8722518 4.03783113,11.1076238 4.03783113,10.7960211 L4.03783113,9.91095398 C4.03783113,9.56579406 3.9903909,9.27576819 3.89550903,9.04086769 C3.80562094,8.80596719 3.68826881,8.61421455 3.54344911,8.46560403 C3.42359832,8.3169935 3.29625877,8.20433883 3.16142664,8.12763663 C3.0265945,8.0605222 2.91922978,8.01977476 2.83932926,8.0053931 C3.01411165,7.93827881 3.24881592,7.77289216 3.54344911,7.480465 C3.68826881,7.33185448 3.80562094,7.14010185 3.89550903,6.90520134 C3.9903909,6.68947639 4.03783113,6.41862579 4.03783113,6.09264142 L4.03783113,5.19319271 C4.03783113,4.86720834 4.0420343,4.17770915 4.71198843,4.15145868 L5.70279332,4.15145868 C5.86847874,4.15145868 6.00279332,4.0171441 6.00279332,3.85145868 L6.00279332,3.30196019 C6.00279332,3.13627476 5.86847874,3.00196019 5.70279332,3.00196019 C5.70214205,3.00196019 5.70149078,3.00196231 5.70083953,3.00196655 L4.34662919,3.01078619 L4.34662919,3.01078619 C3.937139,3.01078619 3.59007631,3.15220376 3.30543069,3.43504314 C3.00580372,3.72267641 2.85099878,4.12535695 2.84101121,4.64309684 L2.84101121,5.75107862 C2.84101121,6.2304674 2.74363391,6.64273557 2.54887638,6.98789549 C2.45898829,7.15568157 2.33664245,7.28271769 2.18183518,7.36900767 C2.0320217,7.46967931 1.85474507,7.52001438 1.64999998,7.52001438 L1.64999998,8.49077181 Z" id="{-}"></path>
            <path d="M10,8.48881162 C10.3995026,8.4983994 10.6991251,8.67577059 10.8988764,9.02093051 C11.0936339,9.35170877 11.1910112,9.77356457 11.1910112,10.2865106 L11.1910112,11.3657292 C11.2009988,11.8738813 11.3558037,12.2693711 11.6554307,12.5522105 C11.9400763,12.8398437 12.287139,12.988452 12.6966292,12.9980398 L14.0547471,12.9891947 C14.2196666,12.9881206 14.3527933,12.854124 14.3527933,12.6892011 L14.3527933,12.1968417 C14.3527933,12.0311562 14.2184788,11.8968417 14.0527933,11.8968417 L13.0619885,11.8968417 L13.0619885,11.8968417 C12.3843901,11.8702917 12.3878312,11.1056636 12.3878312,10.7940609 L12.3878312,9.90899379 C12.3878312,9.56383387 12.3403909,9.273808 12.2455091,9.0389075 C12.155621,8.804007 12.0382688,8.61225436 11.8934491,8.46364384 C11.7735983,8.31503332 11.6462588,8.20237864 11.5114267,8.12567644 C11.3765945,8.05856201 11.2692298,8.01781457 11.1893293,8.00343291 C11.3641117,7.93631862 11.5988159,7.77093197 11.8934491,7.47850482 C12.0382688,7.32989429 12.155621,7.13814166 12.2455091,6.90324115 C12.3403909,6.6875162 12.3878312,6.4166656 12.3878312,6.09068123 L12.3878312,5.19123252 C12.3878312,4.86524815 12.3920343,4.17574896 13.0619885,4.14949849 L14.0527933,4.14949849 C14.2184788,4.14949849 14.3527933,4.01518391 14.3527933,3.84949849 L14.3527933,3.3 C14.3527933,3.13431458 14.2184788,3 14.0527933,3 C14.0521421,3 14.0514908,3.00000212 14.0508396,3.00000636 L12.6966292,3.008826 L12.6966292,3.008826 C12.287139,3.008826 11.9400763,3.15024357 11.6554307,3.43308296 C11.3558037,3.72071622 11.2009988,4.12339676 11.1910112,4.64113665 L11.1910112,5.74911843 C11.1910112,6.22850721 11.0936339,6.64077538 10.8988764,6.9859353 C10.8089883,7.15372138 10.6866425,7.2807575 10.5318352,7.36704748 C10.3820217,7.46771913 10.2047451,7.51805419 10,7.51805419 L10,8.48881162 Z" id="{-}" transform="translate(12.176397, 7.999020) scale(-1, 1) translate(-12.176397, -7.999020) "></path>
        </g>
    </g>
</svg>