<?xml version="1.0" encoding="UTF-8"?>
<svg width="18px" height="16px" viewBox="0 0 18 16" version="1.1" xmlns="http://www.w3.org/2000/svg" xmlns:xlink="http://www.w3.org/1999/xlink">
    <!-- Generator: Sketch 59.1 (86144) - https://sketch.com -->
    <title>Filetype / WXSS</title>
    <desc>Created with Sketch.</desc>
    <g id="Filetype-/-WXSS" stroke="none" stroke-width="1" fill="none" fill-rule="evenodd">
        <g id="Group" fill="#006CBD">
            <path d="M3.47800331,7.46760695 L3.52614884,7.46760695 L4.11862841,10.1385577 C4.14908799,10.2758722 4.27085694,10.3735899 4.41150923,10.3735899 L4.84794853,10.3735899 C4.98959368,10.3735899 5.11193906,10.2745186 5.14139155,10.1359693 L6.02222639,5.99237956 C6.05667761,5.83031546 5.95322692,5.67100831 5.79116282,5.6365571 C5.7706559,5.63219778 5.74974851,5.63000011 5.72878337,5.63000011 L5.34384512,5.63000011 C5.19653286,5.63000011 5.07101693,5.73695691 5.04764495,5.8824033 L4.58267585,8.77595672 L4.58267585,8.77595672 L4.53453032,8.77595672 L3.94408604,5.8702603 C3.9156783,5.73046003 3.79275162,5.63000011 3.65009428,5.63000011 L3.35569861,5.63000011 C3.21230358,5.63000011 3.08895733,5.73147751 3.0613224,5.87218446 L2.49101985,8.77595672 L2.49101985,8.77595672 L2.44287432,8.77595672 L1.97040461,5.88166726 C1.94671666,5.73655791 1.82135372,5.63000011 1.67432365,5.63000011 L1.28071829,5.63000011 C1.11503286,5.63000011 0.980718286,5.76431469 0.980718286,5.93000011 C0.980718286,5.95096526 0.982915955,5.97187265 0.987275268,5.99237956 L1.86811011,10.1359693 C1.8975626,10.2745186 2.01990798,10.3735899 2.16155313,10.3735899 L2.60247471,10.3735899 C2.74352173,10.3735899 2.86552058,10.2753351 2.89558189,10.1375288 L3.47800331,7.46760695 L3.47800331,7.46760695 Z M6.68239912,10.3717949 L7.0554118,10.3717949 C7.16978981,10.3717949 7.27421575,10.3067569 7.32465972,10.2041034 L7.98048759,8.86949375 L7.98048759,8.86949375 L8.03130788,8.86949375 L8.68200583,10.2033295 C8.732291,10.3064068 8.83694388,10.3717949 8.95163267,10.3717949 L9.37753028,10.3717949 C9.54321571,10.3717949 9.67753028,10.2374803 9.67753028,10.0717949 C9.67753028,10.0241247 9.66617028,9.97714079 9.64439161,9.93473637 L8.64650082,7.99178172 L8.64650082,7.99178172 L9.65066352,6.06696522 C9.7272986,5.92006824 9.67034007,5.73885969 9.52344309,5.66222461 C9.48060422,5.63987588 9.43300105,5.62820513 9.384683,5.62820513 L8.98325416,5.62820513 C8.86468247,5.62820513 8.75723532,5.69804272 8.70909381,5.80640157 L8.09015242,7.19953978 L8.09015242,7.19953978 L8.03933213,7.19953978 L7.4254779,5.80718255 C7.3775201,5.69840365 7.26985336,5.62820513 7.15097191,5.62820513 L6.68848667,5.62820513 C6.52280125,5.62820513 6.38848667,5.7625197 6.38848667,5.92820513 C6.38848667,5.97502079 6.3994432,6.02118673 6.42047976,6.0630098 L7.38401791,7.97863248 L7.38401791,7.97863248 L6.41354878,9.93868028 C6.34003162,10.0871622 6.40080259,10.2671281 6.54928453,10.3406452 C6.59066735,10.3611349 6.63622159,10.3717949 6.68239912,10.3717949 Z M10.1424947,9.30693942 C10.1424947,9.30693942 10.1424947,9.30693942 10.1424947,9.30693942 C10.2706835,10.0511636 10.8538768,10.5 11.7237096,10.5 C12.7347658,10.5 13.3499587,9.9017094 13.3499587,8.9122288 C13.3499587,8.15943458 13.0075905,7.73537147 12.2452862,7.55456936 L11.7477823,7.43622617 C11.34122,7.33760684 11.1700359,7.18639053 11.1700359,6.92669297 C11.1700359,6.61111111 11.3973898,6.41058514 11.7424328,6.41058514 C11.9914915,6.41058514 12.1959548,6.53219146 12.2984844,6.72595183 C12.3061951,6.74052343 12.3136434,6.75806498 12.3208293,6.77857649 C12.3630462,6.89878803 12.4765481,6.97928994 12.6039572,6.97928994 L13.1212935,6.97928994 C13.2011807,6.97928027 13.265942,6.91451891 13.265942,6.83463173 C13.265942,6.82947217 13.265666,6.82431631 13.265115,6.81918625 C13.265115,6.81918625 13.265115,6.81918625 13.265115,6.81918625 C13.1802807,6.02924505 12.5770333,5.5 11.7290591,5.5 C10.7982454,5.5 10.1937515,6.10815253 10.1937515,7.03517423 C10.1937515,7.78139382 10.5575177,8.2547666 11.2636522,8.41913215 L11.7718551,8.54404997 C12.2131892,8.65253123 12.3816985,8.7938856 12.3816985,9.05687048 C12.3816985,9.36916502 12.1302719,9.58612755 11.7638308,9.58612755 C11.5016009,9.58612755 11.2916698,9.49450002 11.1692052,9.33682519 C11.1469865,9.30821834 11.1262308,9.26799521 11.1069379,9.21615579 C11.0632912,9.09863785 10.9511395,9.02071006 10.8257781,9.02071006 L10.3836654,9.02071006 C10.2485092,9.02067691 10.1389433,9.13024273 10.1389433,9.26539902 C10.1389433,9.27932163 10.1401314,9.29321885 10.1424947,9.30693942 Z M13.7961192,9.30693942 C13.7961192,9.30693942 13.7961192,9.30693942 13.7961192,9.30693942 C13.9241647,10.0511636 14.5067065,10.5 15.3755676,10.5 C16.3854943,10.5 17,9.9017094 17,8.9122288 C17,8.15943458 16.6580142,7.73537147 15.8965615,7.55456936 L15.3996134,7.43622617 C14.9935053,7.33760684 14.8225125,7.18639053 14.8225125,6.92669297 C14.8225125,6.61111111 15.0496124,6.41058514 15.3942699,6.41058514 C15.6430504,6.41058514 15.8472852,6.53219146 15.9497003,6.72595183 C15.9573818,6.74048454 15.9648026,6.75797137 15.9719628,6.77841232 C16.0140545,6.89874111 16.1276169,6.97928994 16.2550953,6.97928994 L16.7713984,6.97928994 C16.8513019,6.97929589 16.9160764,6.91452131 16.9160764,6.83461782 C16.9160764,6.82946293 16.9158009,6.82431173 16.9152511,6.81918625 C16.9152511,6.81918625 16.9152511,6.81918625 16.9152511,6.81918625 C16.8305115,6.02924505 16.2279381,5.5 15.3809111,5.5 C14.4511373,5.5 13.8473186,6.10815253 13.8473186,7.03517423 C13.8473186,7.78139382 14.2106785,8.2547666 14.9160242,8.41913215 L15.4236593,8.54404997 C15.8645004,8.65253123 16.0328215,8.7938856 16.0328215,9.05687048 C16.0328215,9.36916502 15.7816757,9.58612755 15.415644,9.58612755 C15.153707,9.58612755 14.9440104,9.49450002 14.8216827,9.33682519 C14.7994888,9.30821834 14.7787563,9.26799521 14.7594849,9.21615579 C14.7157859,9.09866032 14.6036456,9.02071006 14.4782869,9.02071006 L14.0372977,9.02071006 C13.9021414,9.02072187 13.7925755,9.13028773 13.7925755,9.26544408 C13.7925755,9.27935142 13.793761,9.29323346 13.7961192,9.30693942 Z" id="WXS"></path>
        </g>
    </g>
</svg>