<?xml version="1.0" encoding="UTF-8"?>
<svg width="16px" height="16px" viewBox="0 0 16 16" version="1.1" xmlns="http://www.w3.org/2000/svg" xmlns:xlink="http://www.w3.org/1999/xlink">
    <title>Icon1 /new/ Function</title>
    <g id="Icon1-/new/-Function" stroke="none" stroke-width="1" fill="none" fill-rule="evenodd">
        <g id="编组" transform="translate(0.000000, 1.000000)" fill="#FFC300" fill-rule="nonzero">
            <g id="编组-2" transform="translate(0.109078, 0.385993)">
                <g id="编组-3" transform="translate(0.527043, 0.196169)">
                    <path d="M6.93588323,0.38951538 C7.23963985,0.38951538 7.48588323,0.635758767 7.48588323,0.93951538 C7.48588323,1.24327199 7.23963985,1.48951538 6.93588323,1.48951538 C5.98533796,1.48951538 5.15959237,2.12317258 4.90449704,3.02497692 L4.86549467,3.186828 L3.11156624,11.9564702 C3.05199467,12.254328 2.76224086,12.4474972 2.464383,12.3879257 C2.19631092,12.3343112 2.01303665,12.0942492 2.0224902,11.8296346 L2.0329275,11.7407424 L3.78685593,2.97110025 C4.08707224,1.47001871 5.40507441,0.38951538 6.93588323,0.38951538 Z" id="路径-11"></path>
                    <path d="M6.4346156,4.93088898 C6.62586717,4.74029515 6.92227011,4.71959201 7.13636896,4.86845668 L7.2124319,4.93222879 L13.7351768,11.4774836 C13.9495948,11.6926416 13.948995,12.0408818 13.733837,12.2552999 C13.5425854,12.4458937 13.2461825,12.4665969 13.0320836,12.3177322 L12.9560207,12.2539601 L6.43327579,5.70870529 C6.21885773,5.49354727 6.21945758,5.14530705 6.4346156,4.93088898 Z" id="路径-4"></path>
                    <path d="M12.966554,4.91790216 C13.1813391,4.70311053 13.5295798,4.70310521 13.7443715,4.91789029 C13.9352974,5.10881037 13.9565155,5.40517689 13.8080232,5.61953411 L13.7443833,5.69570775 L7.19912853,12.2411623 C6.98434344,12.4559539 6.63610271,12.4559593 6.42131107,12.2411742 C6.23038517,12.0502541 6.20916698,11.7538876 6.35765937,11.5395304 L6.4212992,11.4633567 L12.966554,4.91790216 Z" id="路径-4"></path>
                    <path d="M6.75357037,4.73209084 C7.05732698,4.73209084 7.30357037,4.97833423 7.30357037,5.28209084 C7.30357037,5.55547179 7.10411322,5.78226703 6.84278322,5.82489227 L6.75357037,5.83209084 L0.953570365,5.83209084 C0.649813753,5.83209084 0.403570365,5.58584745 0.403570365,5.28209084 C0.403570365,5.00870989 0.603027509,4.78191465 0.864357508,4.73928941 L0.953570365,4.73209084 L6.75357037,4.73209084 Z" id="路径-4"></path>
                </g>
            </g>
        </g>
    </g>
</svg>