<?xml version="1.0" encoding="UTF-8"?>
<svg width="16px" height="16px" viewBox="0 0 16 16" version="1.1" xmlns="http://www.w3.org/2000/svg" xmlns:xlink="http://www.w3.org/1999/xlink">
    <title>Icon1/new/ env</title>
    <g id="Icon1/new/-env" stroke="none" stroke-width="1" fill="none" fill-rule="evenodd">
        <path d="M11.0327881,4.96721185 C13.8913853,7.82580897 14.8509228,11.5009766 13.1759783,13.1759783 C11.5009766,14.8509228 7.82580897,13.8913853 4.96721185,11.0327881 C2.10861473,8.17419103 1.14907723,4.49902343 2.82402174,2.82402174 C4.49902343,1.14907724 8.17419103,2.10861473 11.0327881,4.96721185 Z M10.3256814,5.67431863 C7.80622976,3.15486703 4.71460901,2.34768844 3.53114059,3.53111645 C2.34768844,4.714609 3.15486703,7.80622976 5.67431864,10.3256814 C8.19377024,12.845133 11.285391,13.6523116 12.4688594,12.4688835 C13.6194379,11.3182658 12.8884402,8.36405463 10.5316661,5.88554424 L10.3256814,5.67431863 Z" id="路径" fill="#91D300" fill-rule="nonzero" transform="translate(8.000000, 8.000000) scale(-1, 1) translate(-8.000000, -8.000000) "></path>
        <path d="M11.0327881,4.96721185 C13.8913853,7.82580897 14.8509228,11.5009766 13.1759783,13.1759783 C11.5009766,14.8509228 7.82580897,13.8913853 4.96721185,11.0327881 C2.10861473,8.17419103 1.14907723,4.49902343 2.82402174,2.82402174 C4.49902343,1.14907724 8.17419103,2.10861473 11.0327881,4.96721185 Z M10.3256814,5.67431863 C7.80622976,3.15486703 4.71460901,2.34768844 3.53114059,3.53111645 C2.34768844,4.714609 3.15486703,7.80622976 5.67431864,10.3256814 C8.19377024,12.845133 11.285391,13.6523116 12.4688594,12.4688835 C13.6194379,11.3182658 12.8884402,8.36405463 10.5316661,5.88554424 L10.3256814,5.67431863 Z" id="路径" fill="#91D300" fill-rule="nonzero"></path>
    </g>
</svg>