<?xml version="1.0" encoding="UTF-8"?>
<svg width="14px" height="13px" viewBox="0 0 14 13" version="1.1" xmlns="http://www.w3.org/2000/svg" xmlns:xlink="http://www.w3.org/1999/xlink">
    <title>Icon1 /  new/ cloud备份</title>
    <g id="-" stroke="none" stroke-width="1" fill="none" fill-rule="evenodd">
        <g id="Icon1/new/cloud-cloudFunction" fill="#FFFFFF" transform="translate(-1.000000, -1.000000)">
            <g id="Icon-/-Grid" stroke-width="1" fill="none"></g>
            <path d="M8.3,8 C8.57614237,8 8.8,8.22385763 8.8,8.5 C8.8,8.77614237 8.57614237,9 8.3,9 C7.99119483,9 7.72102558,9.19616984 7.62102482,9.48067859 L7.5941742,9.57863874 L7.51,10 L8.51154077,10.0001324 L8.54279676,10.0018237 L8.54279676,10.0018237 L8.54887195,10.001872 L8.5534276,10.002821 L8.56087195,10.002872 L8.57391777,10.0054619 L8.57391777,10.0054619 L8.56787195,10.004872 L8.60522765,10.0110922 L8.60522765,10.0110922 C8.62047425,10.0143961 8.63583471,10.018448 8.65101164,10.0232413 L8.69103656,10.0377922 L8.69103656,10.0377922 C8.70453886,10.0433515 8.71827569,10.0497496 8.73175819,10.056805 C8.74404667,10.0632933 8.75568247,10.0700193 8.76701032,10.077188 C8.77270191,10.0807332 8.77853638,10.0845946 8.7843055,10.0885912 L8.80214392,10.1015827 C8.81575424,10.1119203 8.82881868,10.1229392 8.84128643,10.1345887 L10,11.293 L11.1464466,10.1464466 C11.320013,9.97288026 11.5894374,9.95359511 11.7843055,10.0885912 L11.8535534,10.1464466 C12.0271197,10.320013 12.0464049,10.5894374 11.9114088,10.7843055 L11.8535534,10.8535534 L10.707,12 L11.8535534,13.1464466 C12.0271197,13.320013 12.0464049,13.5894374 11.9114088,13.7843055 L11.8535534,13.8535534 C11.679987,14.0271197 11.4105626,14.0464049 11.2156945,13.9114088 L11.1464466,13.8535534 L10,12.707 L8.85355339,13.8535534 C8.67998704,14.0271197 8.41056264,14.0464049 8.2156945,13.9114088 L8.14644661,13.8535534 C7.97288026,13.679987 7.95359511,13.4105626 8.08859116,13.2156945 L8.14644661,13.1464466 L9.293,12 L8.293,11 L7.31,11 L6.79029034,13.5980581 C6.73613436,13.8688379 6.47272181,14.0444463 6.20194193,13.9902903 C5.96124871,13.9421517 5.79575273,13.7286745 5.79998283,13.4916521 L5.80970966,13.4019419 L6.289,11 L5.5,11 C5.22385763,11 5,10.7761424 5,10.5 C5,10.2238576 5.22385763,10 5.5,10 L6.489,10 L6.61359353,9.38252261 C6.76432064,8.62888702 7.39410213,8.0732104 8.14772867,8.00669471 L8.3,8 Z M10.0353319,2.88675562 C10.6257676,3.38219007 11.0859265,3.97527405 11.4120081,4.62256859 C12.1805571,4.69972214 12.9346181,5.00170821 13.5711504,5.53582228 C15.2121673,6.91279894 15.4694557,9.32695426 14.1887541,11.0150705 L14.0641778,11.1711505 C13.8866769,11.3826878 13.5712991,11.4102798 13.3597617,11.2327789 C13.1717286,11.0750003 13.1290349,10.808282 13.2465334,10.6023897 L13.2981333,10.5283629 L13.298778,10.5275946 C14.3630719,9.2583753 14.1973307,7.36665721 12.9283628,6.30186672 C11.6611876,5.23858048 9.77297944,5.40188197 8.70703054,6.66549949 C8.52436577,6.88317456 8.20898798,6.91076654 7.99745064,6.73326564 C7.78591331,6.55576474 7.75832133,6.24038695 7.93582223,6.02884962 L8.06789859,5.87906288 C8.6763305,5.22233731 9.46006878,4.81347543 10.2861343,4.66411142 C10.0462489,4.29315768 9.74829977,3.95131439 9.39254424,3.65280006 C7.48870826,2.05529199 4.65030808,2.30361982 3.05280001,4.20745581 C1.45701431,6.10923914 1.70308644,8.94357252 3.60130357,10.5420286 C3.81899309,10.7247009 3.84658507,11.0400787 3.66908417,11.2516161 C3.49158328,11.4631534 3.17620548,11.4907454 2.96466815,11.3132445 L2.79802083,11.1677098 C0.624294114,9.19218702 0.381867887,5.83482493 2.28675556,3.5646682 C4.23926543,1.23775755 7.7084212,0.934245749 10.0353319,2.88675562 Z" id="color" fill="#FA9D3B" fill-rule="nonzero"></path>
        </g>
    </g>
</svg>